<svg id="Layer_1" data-name="Layer 1" xmlns="http://www.w3.org/2000/svg" viewBox="0 0 932.323 659.343">
  <path d="M932.323,659.343H0c10.216-26.052,29.078-48.152,55.677-54.709,38.9-9.578,80.075,16.759,118.892,6.856,22.054-5.62,39.416-22,57.66-35.6,68.828-51.316,163.149-66.483,244.594-39.321,42.572,14.19,81.363,39.006,124.973,49.557,56.392,13.648,115.366,2.33,173.359.465C831.635,584.777,912.56,607.79,932.323,659.343Z" fill="#f3f5fd"></path>
  <g>
    <g>
      <rect x="360.638" y="81.747" width="313.451" height="568.772" rx="34.026" fill="#fff"></rect>
      <path d="M640.062,659.343h-245.4a42.9,42.9,0,0,1-42.85-42.85V115.773a42.9,42.9,0,0,1,42.85-42.849h245.4a42.9,42.9,0,0,1,42.85,42.849v500.72A42.9,42.9,0,0,1,640.062,659.343ZM394.664,90.57a25.231,25.231,0,0,0-25.2,25.2v500.72a25.23,25.23,0,0,0,25.2,25.2h245.4a25.23,25.23,0,0,0,25.2-25.2V115.773a25.231,25.231,0,0,0-25.2-25.2Z" fill="#dee8f5"></path>
    </g>
    <path d="M463.632,81.747H571.094a0,0,0,0,1,0,0V102.6A15.607,15.607,0,0,1,555.488,118.2h-76.25A15.607,15.607,0,0,1,463.632,102.6V81.747A0,0,0,0,1,463.632,81.747Z" fill="#dee8f5"></path>
  </g>
  <g>
    <path d="M536.293,240.106A32.409,32.409,0,1,1,568.7,207.7,32.446,32.446,0,0,1,536.293,240.106Zm0-56.817A24.409,24.409,0,1,0,560.7,207.7,24.436,24.436,0,0,0,536.293,183.289Z" fill="#fdb754"></path>
    <g opacity="0.12">
      <path d="M536.292,240.106A32.409,32.409,0,1,1,568.7,207.7,32.445,32.445,0,0,1,536.292,240.106Zm0-56.817A24.409,24.409,0,1,0,560.7,207.7,24.435,24.435,0,0,0,536.292,183.289Z"></path>
    </g>
    <rect x="466.836" y="208.116" width="138.913" height="158.018" fill="#fdb754"></rect>
    <g opacity="0.12">
      <rect x="466.836" y="208.116" width="138.913" height="158.018"></rect>
    </g>
    <rect x="428.977" y="208.116" width="138.913" height="158.018" fill="#fdb754"></rect>
    <path d="M498.433,240.106A32.409,32.409,0,1,1,530.842,207.7,32.445,32.445,0,0,1,498.433,240.106Zm0-56.817A24.409,24.409,0,1,0,522.842,207.7,24.435,24.435,0,0,0,498.433,183.289Z" fill="#fdb754"></path>
  </g>
  <g>
    <circle cx="517.363" cy="505.153" r="67.341" fill="#c1d8ed"></circle>
    <path d="M505.816,541.92a5.5,5.5,0,0,1-3.774-1.5l-25.58-24.137a5.5,5.5,0,1,1,7.548-8l21.5,20.288,44.906-49.484a5.5,5.5,0,1,1,8.146,7.392l-48.674,53.637a5.5,5.5,0,0,1-3.86,1.8C505.958,541.919,505.886,541.92,505.816,541.92Z" fill="#fff"></path>
  </g>
  <g>
    <g>
      <path d="M182.565,95.638S179.6,83.775,169.02,85.286c-12.565,1.8.946,35.1,9.459,55.424a16.754,16.754,0,0,1-10.743,22.538h0a16.756,16.756,0,0,1-21.025-12.156c-6.409-26.71-12.952-76.748,15.666-79.853,18.594-2.018,21.228,16.428,21.228,16.428Z" fill="#0f1011"></path>
      <path d="M188.477,137.031s7.075-5.152,2.389-25.753l15.4-5.191s.892,18.943,9.741,23.734Z" fill="#EDA59F"></path>
      <g opacity="0.15">
        <path d="M212.205,126.376,197.63,118.2l10.305-1.581A28.726,28.726,0,0,0,212.205,126.376Z"></path>
      </g>
      <path d="M180.738,104.477c2,6.168,6.3,11.664,12.175,12.91a40.5,40.5,0,0,0,19.532-.148c17.112-3.892,8.064-42.771-1.248-49.244s-32.745,1.815-33.853,15.024C176.771,89.851,178.836,98.606,180.738,104.477Z" fill="#EDA59F"></path>
      <g>
        <circle cx="204.604" cy="94.634" r="1.449" fill="#0f1011"></circle>
        <circle cx="215.788" cy="92.09" r="1.449" fill="#0f1011"></circle>
        <path d="M213.933,89.18a.681.681,0,0,1-.087-1.356l3.807-.5a.681.681,0,1,1,.176,1.35l-3.807.5A.665.665,0,0,1,213.933,89.18Z" fill="#0f1011"></path>
        <path d="M201.042,92.483a.68.68,0,0,1-.251-1.313l3.617-1.437a.681.681,0,1,1,.5,1.266l-3.617,1.436A.67.67,0,0,1,201.042,92.483Z" fill="#0f1011"></path>
        <path d="M206.881,105.836s5.375-.2,8.9-2.025c0,0,.469,3.492-3.672,4.434S206.881,105.836,206.881,105.836Z" fill="#fff"></path>
      </g>
      <path d="M190.047,86.428c5.631,28.638,2.1,32.182,2.1,32.182S176.488,112,172.131,94.94c-4.084-15.992,6.516-27.293,14.345-30.256,29.752-11.262,37.14,16.235,37.14,16.235C208.8,87.069,186.8,87.48,186.8,87.48" fill="#0f1011"></path>
      <path d="M197.644,99.21a6.143,6.143,0,0,1-11.98,2.725,6.041,6.041,0,0,1,4.627-7.352C194.605,93.822,196.891,95.9,197.644,99.21Z" fill="#EDA59F"></path>
      <g opacity="0.15">
        <path d="M212.037,101.686a.5.5,0,0,1-.212-.952l2.789-1.313-2.69-4.253a.5.5,0,0,1,.846-.535l2.992,4.732a.5.5,0,0,1-.21.72l-3.3,1.553A.5.5,0,0,1,212.037,101.686Z"></path>
      </g>
      <path d="M171.374,87.673a2.5,2.5,0,0,1-2.5-2.463,20.779,20.779,0,0,1,4.62-12.794,2.5,2.5,0,0,1,3.787,3.265,15.88,15.88,0,0,0-3.407,9.455,2.5,2.5,0,0,1-2.463,2.537Z" fill="#55affc"></path>
    </g>
    <path d="M249.835,28.232l11.107-4.109S262.342,8.867,249.532.8c-4.246-2.673-7.344,2.079-6.566,3.631,2.571,5.13,5.62,9.851,5.559,14.781-1.642-1.533-4.01-3.494-4.708-2.779C241.981,18.314,249.835,28.232,249.835,28.232Z" fill="#EDA59F"></path>
    <path d="M85.315,366.963c-.616-.125-2.493-.5-20.3-6.367l6.567-19.948c7.551,2.487,16.634,5.4,18.142,5.785-.095-.024-.175-.04-.238-.052Z" fill="#EDA59F"></path>
    <path d="M51.008,384.194a4.108,4.108,0,0,0,3.323,5.017h0a4.109,4.109,0,0,0,4.063-1.736l13.8-21.773a3.463,3.463,0,0,0,.377-2.866,19.1,19.1,0,0,1-.557-11.948,17.03,17.03,0,0,1,5.239-7.793,1.546,1.546,0,0,0-.561-2.741l-11.605-2.861a2.678,2.678,0,0,0-3.244,1.97Z" fill="#c1d8ed"></path>
    <path d="M240.074,510.913,220.8,502.585c3.152-7.3,6.873-16.081,7.387-17.55-.032.094-.055.172-.074.233l20.127,6C248.057,491.866,247.51,493.7,240.074,510.913Z" fill="#EDA59F"></path>
    <path d="M262.322,526.978a4.108,4.108,0,0,0,5.3-2.859h0a4.107,4.107,0,0,0-1.366-4.2l-20.447-15.7a3.46,3.46,0,0,0-2.82-.633,19.1,19.1,0,0,1-11.95-.516,17.035,17.035,0,0,1-7.292-5.917,1.547,1.547,0,0,0-2.781.313l-3.89,11.3a2.68,2.68,0,0,0,1.671,3.408Z" fill="#c1d8ed"></path>
    <path d="M284.5,376.9c-1.031-22.767-22.109-126.353-24.342-137.524L184.518,242.8s-25.075,97.519-26.094,100.236l-72.683-5.15-7.452,36.242,89.887,15.158A21.035,21.035,0,0,0,192.4,377.42s28.582-84.02,29.158-85.569L245.075,369.8,218.522,489.616l35.33,10.99S284.916,386.107,284.5,376.9Z" fill="#55affc"></path>
    <path d="M115.065,58.423l-11.82.728s-6.2-15.25,2.256-27.8c2.8-4.161,7.558-1.065,7.473.669-.279,5.731-2.4,13.141-.355,17.627.883-2.066,2.257-4.817,3.184-4.445C118.243,46.177,115.065,58.423,115.065,58.423Z" fill="#EDA59F"></path>
    <path d="M285.594,83.728l-20.785-65.4-20.779,6.6,19.036,59.9-32.339,41.121a30.814,30.814,0,0,0-8.655.024c-.62.08-1.61.23-2.9.43.68,5.46-32.88,11.28-34.56,5.88a39.5,39.5,0,0,0-12.182,4.126l-43.381-24.987L117.714,51.949,96.3,56.031l12.271,64.386a10.9,10.9,0,0,0,5.267,7.406l46.573,26.826c-.6,15.982,15.276,34.214,18.165,50.866,3.6,20.7-4.14,31.6-1.61,42.1,3.99,16.5,84.41-1.55,86.9-11.75,2.55-10.52-7.13-15.04-12.32-47.09-2.468-15.255-1.115-34.335-5.126-47.5l37.358-47.5A10.9,10.9,0,0,0,285.594,83.728Z" fill="#2f3235"></path>
    <path d="M209.3,142.525c-11.98,2.9-23.01-4.84-24.69-10.24a.06.06,0,0,1,.04-.01c11.93-2.08,27.55-4.77,34.52-5.87C219.852,131.865,218.282,140.345,209.3,142.525Z" fill="#EDA59F"></path>
  </g>
  <g>
    <g>
      <rect x="748.269" y="559.574" width="10.142" height="99.769" fill="#c1d8ed"></rect>
      <rect x="739.923" y="559.574" width="10.142" height="99.769" fill="#dee8f5"></rect>
    </g>
    <g>
      <rect x="874.591" y="559.574" width="10.142" height="99.769" fill="#c1d8ed"></rect>
      <rect x="866.244" y="559.574" width="10.142" height="99.769" fill="#dee8f5"></rect>
    </g>
    <g>
      <rect x="776.085" y="559.574" width="10.142" height="99.769" fill="#c1d8ed"></rect>
      <rect x="767.739" y="559.574" width="10.142" height="99.769" fill="#dee8f5"></rect>
    </g>
    <g>
      <rect x="902.407" y="559.574" width="10.142" height="99.769" fill="#c1d8ed"></rect>
      <rect x="894.061" y="559.574" width="10.142" height="99.769" fill="#dee8f5"></rect>
    </g>
    <rect x="776.148" y="495.712" width="136.4" height="66.254" fill="#c1d8ed"></rect>
    <rect x="739.923" y="495.712" width="136.4" height="66.254" fill="#dee8f5"></rect>
    <g opacity="0.53">
      <rect x="747.26" y="505.13" width="121.724" height="47.124" fill="#f3f5fd"></rect>
    </g>
    <circle cx="808.122" cy="528.692" r="5.406" fill="#fff"></circle>
  </g>
  <g>
    <rect x="792.028" y="430.295" width="10.59" height="56.156" transform="translate(-84.072 195.746) rotate(-13.302)" fill="#f0f6ff"></rect>
    <g>
      <rect x="781.4" y="447.19" width="48.777" height="5.818" transform="translate(216.982 1160.867) rotate(-79.548)" fill="#c1d8ed"></rect>
      <rect x="807.016" y="425.852" width="5.386" height="5.818" transform="translate(237.135 1144.04) rotate(-79.225)" fill="#dee8f5"></rect>
    </g>
    <rect x="795.615" y="436.646" width="3.415" height="50.584" transform="translate(-113.825 324.387) rotate(-21.502)" fill="#fdb754"></rect>
    <rect x="785.58" y="458.373" width="27.948" height="35.72" fill="#c1d8ed"></rect>
  </g>
</svg>